<mxfile host="65bd71144e">
    <diagram id="C5RBs43oDa-KdzZeNtuy" name="Page-1">
        <mxGraphModel dx="2902" dy="1349" grid="1" gridSize="10" guides="1" tooltips="1" connect="1" arrows="1" fold="1" page="1" pageScale="1" pageWidth="827" pageHeight="1169" math="0" shadow="0">
            <root>
                <mxCell id="WIyWlLk6GJQsqaUBKTNV-0"/>
                <mxCell id="WIyWlLk6GJQsqaUBKTNV-1" parent="WIyWlLk6GJQsqaUBKTNV-0"/>
                <mxCell id="vFhErmx-uWJT_EBI2WYM-209" value="" style="rounded=0;whiteSpace=wrap;html=1;rotation=-90;" parent="WIyWlLk6GJQsqaUBKTNV-1" vertex="1">
                    <mxGeometry x="703" y="303.63" width="1074.5" height="533.32" as="geometry"/>
                </mxCell>
                <mxCell id="vFhErmx-uWJT_EBI2WYM-36" value="" style="rounded=0;whiteSpace=wrap;html=1;rotation=-90;" parent="WIyWlLk6GJQsqaUBKTNV-1" vertex="1">
                    <mxGeometry x="-124" y="190.82" width="1074.62" height="766.25" as="geometry"/>
                </mxCell>
                <mxCell id="vFhErmx-uWJT_EBI2WYM-91" style="edgeStyle=orthogonalEdgeStyle;rounded=0;orthogonalLoop=1;jettySize=auto;html=1;exitX=0.5;exitY=1;exitDx=0;exitDy=0;" parent="WIyWlLk6GJQsqaUBKTNV-1" source="vFhErmx-uWJT_EBI2WYM-92" target="vFhErmx-uWJT_EBI2WYM-133" edge="1">
                    <mxGeometry relative="1" as="geometry">
                        <mxPoint x="364.44" y="181.63" as="targetPoint"/>
                    </mxGeometry>
                </mxCell>
                <mxCell id="vFhErmx-uWJT_EBI2WYM-92" value="Inicio" style="ellipse;whiteSpace=wrap;html=1;" parent="WIyWlLk6GJQsqaUBKTNV-1" vertex="1">
                    <mxGeometry x="319.44" y="111.63" width="90" height="40" as="geometry"/>
                </mxCell>
                <mxCell id="vFhErmx-uWJT_EBI2WYM-93" value="&lt;u&gt;&lt;b&gt;&lt;font style=&quot;font-size: 22px;&quot;&gt;Sector Legal&lt;/font&gt;&lt;/b&gt;&lt;/u&gt;" style="text;html=1;align=center;verticalAlign=middle;resizable=0;points=[];autosize=1;strokeColor=none;fillColor=none;" parent="WIyWlLk6GJQsqaUBKTNV-1" vertex="1">
                    <mxGeometry x="316.44" y="51.63" width="160" height="40" as="geometry"/>
                </mxCell>
                <mxCell id="vFhErmx-uWJT_EBI2WYM-94" style="edgeStyle=orthogonalEdgeStyle;rounded=0;orthogonalLoop=1;jettySize=auto;html=1;exitX=0.5;exitY=1;exitDx=0;exitDy=0;entryX=0.5;entryY=0;entryDx=0;entryDy=0;" parent="WIyWlLk6GJQsqaUBKTNV-1" source="vFhErmx-uWJT_EBI2WYM-95" target="vFhErmx-uWJT_EBI2WYM-100" edge="1">
                    <mxGeometry relative="1" as="geometry"/>
                </mxCell>
                <mxCell id="vFhErmx-uWJT_EBI2WYM-95" value="OpciÃ³n" style="shape=parallelogram;perimeter=parallelogramPerimeter;whiteSpace=wrap;html=1;fixedSize=1;" parent="WIyWlLk6GJQsqaUBKTNV-1" vertex="1">
                    <mxGeometry x="324.94" y="533.63" width="85" height="30" as="geometry"/>
                </mxCell>
                <mxCell id="vFhErmx-uWJT_EBI2WYM-96" style="edgeStyle=orthogonalEdgeStyle;rounded=0;orthogonalLoop=1;jettySize=auto;html=1;exitX=0.5;exitY=1;exitDx=0;exitDy=0;entryX=0.5;entryY=0;entryDx=0;entryDy=0;" parent="WIyWlLk6GJQsqaUBKTNV-1" source="vFhErmx-uWJT_EBI2WYM-100" target="vFhErmx-uWJT_EBI2WYM-101" edge="1">
                    <mxGeometry relative="1" as="geometry">
                        <mxPoint x="213.44" y="703.63" as="targetPoint"/>
                        <mxPoint x="213.44" y="673.63" as="sourcePoint"/>
                    </mxGeometry>
                </mxCell>
                <mxCell id="vFhErmx-uWJT_EBI2WYM-97" value="Si" style="edgeLabel;html=1;align=center;verticalAlign=middle;resizable=0;points=[];" parent="vFhErmx-uWJT_EBI2WYM-96" vertex="1" connectable="0">
                    <mxGeometry x="-0.2466" y="3" relative="1" as="geometry">
                        <mxPoint x="-4" as="offset"/>
                    </mxGeometry>
                </mxCell>
                <mxCell id="vFhErmx-uWJT_EBI2WYM-98" style="edgeStyle=orthogonalEdgeStyle;rounded=0;orthogonalLoop=1;jettySize=auto;html=1;exitX=1;exitY=0.5;exitDx=0;exitDy=0;entryX=0;entryY=0.5;entryDx=0;entryDy=0;" parent="WIyWlLk6GJQsqaUBKTNV-1" source="vFhErmx-uWJT_EBI2WYM-100" target="vFhErmx-uWJT_EBI2WYM-106" edge="1">
                    <mxGeometry relative="1" as="geometry">
                        <mxPoint x="284.44" y="638.63" as="targetPoint"/>
                    </mxGeometry>
                </mxCell>
                <mxCell id="vFhErmx-uWJT_EBI2WYM-99" value="No" style="edgeLabel;html=1;align=center;verticalAlign=middle;resizable=0;points=[];" parent="vFhErmx-uWJT_EBI2WYM-98" vertex="1" connectable="0">
                    <mxGeometry x="-0.394" y="3" relative="1" as="geometry">
                        <mxPoint as="offset"/>
                    </mxGeometry>
                </mxCell>
                <mxCell id="vFhErmx-uWJT_EBI2WYM-100" value="Opcion = Cargar" style="rhombus;whiteSpace=wrap;html=1;" parent="WIyWlLk6GJQsqaUBKTNV-1" vertex="1">
                    <mxGeometry x="133.44" y="613.63" width="110" height="50" as="geometry"/>
                </mxCell>
                <mxCell id="vFhErmx-uWJT_EBI2WYM-101" value="&lt;div&gt;Fechas importantes&lt;/div&gt;&lt;div&gt;Id documento&lt;/div&gt;Documento&lt;div&gt;Num de caso&lt;/div&gt;" style="shape=parallelogram;perimeter=parallelogramPerimeter;whiteSpace=wrap;html=1;fixedSize=1;" parent="WIyWlLk6GJQsqaUBKTNV-1" vertex="1">
                    <mxGeometry x="103.44" y="720.63" width="170" height="70" as="geometry"/>
                </mxCell>
                <mxCell id="vFhErmx-uWJT_EBI2WYM-102" style="edgeStyle=orthogonalEdgeStyle;rounded=0;orthogonalLoop=1;jettySize=auto;html=1;exitX=0.5;exitY=1;exitDx=0;exitDy=0;entryX=0.5;entryY=0;entryDx=0;entryDy=0;" parent="WIyWlLk6GJQsqaUBKTNV-1" source="vFhErmx-uWJT_EBI2WYM-106" target="vFhErmx-uWJT_EBI2WYM-107" edge="1">
                    <mxGeometry relative="1" as="geometry">
                        <mxPoint x="357.44" y="673.63" as="sourcePoint"/>
                    </mxGeometry>
                </mxCell>
                <mxCell id="vFhErmx-uWJT_EBI2WYM-103" value="Si" style="edgeLabel;html=1;align=center;verticalAlign=middle;resizable=0;points=[];" parent="vFhErmx-uWJT_EBI2WYM-102" vertex="1" connectable="0">
                    <mxGeometry x="-0.095" y="3" relative="1" as="geometry">
                        <mxPoint x="-4" y="-4" as="offset"/>
                    </mxGeometry>
                </mxCell>
                <mxCell id="vFhErmx-uWJT_EBI2WYM-104" style="edgeStyle=orthogonalEdgeStyle;rounded=0;orthogonalLoop=1;jettySize=auto;html=1;exitX=1;exitY=0.5;exitDx=0;exitDy=0;entryX=0;entryY=0.5;entryDx=0;entryDy=0;" parent="WIyWlLk6GJQsqaUBKTNV-1" source="vFhErmx-uWJT_EBI2WYM-106" target="vFhErmx-uWJT_EBI2WYM-113" edge="1">
                    <mxGeometry relative="1" as="geometry"/>
                </mxCell>
                <mxCell id="vFhErmx-uWJT_EBI2WYM-105" value="No" style="edgeLabel;html=1;align=center;verticalAlign=middle;resizable=0;points=[];" parent="vFhErmx-uWJT_EBI2WYM-104" vertex="1" connectable="0">
                    <mxGeometry x="-0.0459" y="-5" relative="1" as="geometry">
                        <mxPoint y="-4" as="offset"/>
                    </mxGeometry>
                </mxCell>
                <mxCell id="vFhErmx-uWJT_EBI2WYM-106" value="Opcion= Consultar" style="rhombus;whiteSpace=wrap;html=1;" parent="WIyWlLk6GJQsqaUBKTNV-1" vertex="1">
                    <mxGeometry x="296.44" y="608.63" width="122" height="60" as="geometry"/>
                </mxCell>
                <mxCell id="vFhErmx-uWJT_EBI2WYM-107" value="Documento nombre&lt;div&gt;Num de caso&lt;/div&gt;" style="shape=parallelogram;perimeter=parallelogramPerimeter;whiteSpace=wrap;html=1;fixedSize=1;" parent="WIyWlLk6GJQsqaUBKTNV-1" vertex="1">
                    <mxGeometry x="282.44" y="720.63" width="150" height="30" as="geometry"/>
                </mxCell>
                <mxCell id="vFhErmx-uWJT_EBI2WYM-108" value="Documento" style="strokeWidth=2;html=1;shape=mxgraph.flowchart.document2;whiteSpace=wrap;size=0.25;" parent="WIyWlLk6GJQsqaUBKTNV-1" vertex="1">
                    <mxGeometry x="307.44" y="783.63" width="100" height="60" as="geometry"/>
                </mxCell>
                <mxCell id="vFhErmx-uWJT_EBI2WYM-109" style="edgeStyle=orthogonalEdgeStyle;rounded=0;orthogonalLoop=1;jettySize=auto;html=1;exitX=0.5;exitY=1;exitDx=0;exitDy=0;entryX=0.5;entryY=0;entryDx=0;entryDy=0;entryPerimeter=0;" parent="WIyWlLk6GJQsqaUBKTNV-1" source="vFhErmx-uWJT_EBI2WYM-107" target="vFhErmx-uWJT_EBI2WYM-108" edge="1">
                    <mxGeometry relative="1" as="geometry"/>
                </mxCell>
                <mxCell id="vFhErmx-uWJT_EBI2WYM-110" value="Documento nombre&lt;div&gt;Num de caso&lt;/div&gt;" style="shape=parallelogram;perimeter=parallelogramPerimeter;whiteSpace=wrap;html=1;fixedSize=1;" parent="WIyWlLk6GJQsqaUBKTNV-1" vertex="1">
                    <mxGeometry x="494.44" y="720.63" width="150" height="30" as="geometry"/>
                </mxCell>
                <mxCell id="vFhErmx-uWJT_EBI2WYM-111" style="edgeStyle=orthogonalEdgeStyle;rounded=0;orthogonalLoop=1;jettySize=auto;html=1;exitX=0.5;exitY=1;exitDx=0;exitDy=0;entryX=0.5;entryY=0;entryDx=0;entryDy=0;" parent="WIyWlLk6GJQsqaUBKTNV-1" source="vFhErmx-uWJT_EBI2WYM-113" target="vFhErmx-uWJT_EBI2WYM-110" edge="1">
                    <mxGeometry relative="1" as="geometry"/>
                </mxCell>
                <mxCell id="vFhErmx-uWJT_EBI2WYM-112" value="Si" style="edgeLabel;html=1;align=center;verticalAlign=middle;resizable=0;points=[];" parent="vFhErmx-uWJT_EBI2WYM-111" vertex="1" connectable="0">
                    <mxGeometry x="-0.453" y="-3" relative="1" as="geometry">
                        <mxPoint x="2" y="9" as="offset"/>
                    </mxGeometry>
                </mxCell>
                <mxCell id="vFhErmx-uWJT_EBI2WYM-113" value="Opcion = Gestionar" style="rhombus;whiteSpace=wrap;html=1;" parent="WIyWlLk6GJQsqaUBKTNV-1" vertex="1">
                    <mxGeometry x="509.44" y="613.63" width="120" height="50" as="geometry"/>
                </mxCell>
                <mxCell id="vFhErmx-uWJT_EBI2WYM-114" value="Documento" style="strokeWidth=2;html=1;shape=mxgraph.flowchart.document2;whiteSpace=wrap;size=0.25;" parent="WIyWlLk6GJQsqaUBKTNV-1" vertex="1">
                    <mxGeometry x="519.44" y="783.63" width="100" height="60" as="geometry"/>
                </mxCell>
                <mxCell id="vFhErmx-uWJT_EBI2WYM-115" style="edgeStyle=orthogonalEdgeStyle;rounded=0;orthogonalLoop=1;jettySize=auto;html=1;entryX=0.5;entryY=0;entryDx=0;entryDy=0;entryPerimeter=0;" parent="WIyWlLk6GJQsqaUBKTNV-1" target="vFhErmx-uWJT_EBI2WYM-114" edge="1">
                    <mxGeometry relative="1" as="geometry">
                        <mxPoint x="569.44" y="750.63" as="sourcePoint"/>
                    </mxGeometry>
                </mxCell>
                <mxCell id="vFhErmx-uWJT_EBI2WYM-116" style="edgeStyle=orthogonalEdgeStyle;rounded=0;orthogonalLoop=1;jettySize=auto;html=1;exitX=0.52;exitY=0.85;exitDx=0;exitDy=0;exitPerimeter=0;entryX=0.5;entryY=0;entryDx=0;entryDy=0;" parent="WIyWlLk6GJQsqaUBKTNV-1" source="vFhErmx-uWJT_EBI2WYM-114" target="vFhErmx-uWJT_EBI2WYM-117" edge="1">
                    <mxGeometry relative="1" as="geometry"/>
                </mxCell>
                <mxCell id="vFhErmx-uWJT_EBI2WYM-117" value="Nuevo documento = Documento&lt;div&gt;Modifica nuevo documento&lt;/div&gt;&lt;div&gt;Documento = Nuevo documento&lt;/div&gt;" style="rounded=1;whiteSpace=wrap;html=1;absoluteArcSize=1;arcSize=14;strokeWidth=2;" parent="WIyWlLk6GJQsqaUBKTNV-1" vertex="1">
                    <mxGeometry x="479.44" y="880.63" width="185" height="60" as="geometry"/>
                </mxCell>
                <mxCell id="vFhErmx-uWJT_EBI2WYM-118" value="" style="strokeWidth=2;html=1;shape=mxgraph.flowchart.database;whiteSpace=wrap;" parent="WIyWlLk6GJQsqaUBKTNV-1" vertex="1">
                    <mxGeometry x="158.44" y="843.63" width="60" height="60" as="geometry"/>
                </mxCell>
                <mxCell id="vFhErmx-uWJT_EBI2WYM-119" style="edgeStyle=orthogonalEdgeStyle;rounded=0;orthogonalLoop=1;jettySize=auto;html=1;exitX=0.5;exitY=1;exitDx=0;exitDy=0;entryX=0.5;entryY=0;entryDx=0;entryDy=0;entryPerimeter=0;" parent="WIyWlLk6GJQsqaUBKTNV-1" source="vFhErmx-uWJT_EBI2WYM-101" target="vFhErmx-uWJT_EBI2WYM-118" edge="1">
                    <mxGeometry relative="1" as="geometry"/>
                </mxCell>
                <mxCell id="vFhErmx-uWJT_EBI2WYM-120" value="Subir a la base de datos" style="text;html=1;align=center;verticalAlign=middle;resizable=0;points=[];autosize=1;strokeColor=none;fillColor=none;" parent="WIyWlLk6GJQsqaUBKTNV-1" vertex="1">
                    <mxGeometry x="29.44" y="810.63" width="150" height="30" as="geometry"/>
                </mxCell>
                <mxCell id="vFhErmx-uWJT_EBI2WYM-121" value="" style="strokeWidth=2;html=1;shape=mxgraph.flowchart.database;whiteSpace=wrap;" parent="WIyWlLk6GJQsqaUBKTNV-1" vertex="1">
                    <mxGeometry x="542.44" y="983.63" width="60" height="60" as="geometry"/>
                </mxCell>
                <mxCell id="vFhErmx-uWJT_EBI2WYM-122" style="edgeStyle=orthogonalEdgeStyle;rounded=0;orthogonalLoop=1;jettySize=auto;html=1;exitX=0.5;exitY=1;exitDx=0;exitDy=0;entryX=0.5;entryY=0;entryDx=0;entryDy=0;entryPerimeter=0;" parent="WIyWlLk6GJQsqaUBKTNV-1" source="vFhErmx-uWJT_EBI2WYM-117" target="vFhErmx-uWJT_EBI2WYM-121" edge="1">
                    <mxGeometry relative="1" as="geometry">
                        <mxPoint x="566.44" y="950.63" as="sourcePoint"/>
                    </mxGeometry>
                </mxCell>
                <mxCell id="vFhErmx-uWJT_EBI2WYM-123" value="Subir a la base de datos" style="text;html=1;align=center;verticalAlign=middle;resizable=0;points=[];autosize=1;strokeColor=none;fillColor=none;" parent="WIyWlLk6GJQsqaUBKTNV-1" vertex="1">
                    <mxGeometry x="413.44" y="950.63" width="150" height="30" as="geometry"/>
                </mxCell>
                <mxCell id="vFhErmx-uWJT_EBI2WYM-124" value="Fin" style="strokeWidth=2;html=1;shape=mxgraph.flowchart.terminator;whiteSpace=wrap;" parent="WIyWlLk6GJQsqaUBKTNV-1" vertex="1">
                    <mxGeometry x="319.44" y="1055.63" width="82" height="40" as="geometry"/>
                </mxCell>
                <mxCell id="vFhErmx-uWJT_EBI2WYM-125" style="edgeStyle=orthogonalEdgeStyle;rounded=0;orthogonalLoop=1;jettySize=auto;html=1;exitX=0.5;exitY=1;exitDx=0;exitDy=0;exitPerimeter=0;entryX=0;entryY=0.5;entryDx=0;entryDy=0;entryPerimeter=0;" parent="WIyWlLk6GJQsqaUBKTNV-1" source="vFhErmx-uWJT_EBI2WYM-118" target="vFhErmx-uWJT_EBI2WYM-124" edge="1">
                    <mxGeometry relative="1" as="geometry"/>
                </mxCell>
                <mxCell id="vFhErmx-uWJT_EBI2WYM-126" style="edgeStyle=orthogonalEdgeStyle;rounded=0;orthogonalLoop=1;jettySize=auto;html=1;exitX=0.5;exitY=1;exitDx=0;exitDy=0;exitPerimeter=0;entryX=1;entryY=0.5;entryDx=0;entryDy=0;entryPerimeter=0;" parent="WIyWlLk6GJQsqaUBKTNV-1" source="vFhErmx-uWJT_EBI2WYM-121" target="vFhErmx-uWJT_EBI2WYM-124" edge="1">
                    <mxGeometry relative="1" as="geometry"/>
                </mxCell>
                <mxCell id="vFhErmx-uWJT_EBI2WYM-127" style="edgeStyle=orthogonalEdgeStyle;rounded=0;orthogonalLoop=1;jettySize=auto;html=1;exitX=0.53;exitY=0.933;exitDx=0;exitDy=0;exitPerimeter=0;entryX=0.5;entryY=0;entryDx=0;entryDy=0;entryPerimeter=0;" parent="WIyWlLk6GJQsqaUBKTNV-1" source="vFhErmx-uWJT_EBI2WYM-108" target="vFhErmx-uWJT_EBI2WYM-124" edge="1">
                    <mxGeometry relative="1" as="geometry">
                        <mxPoint x="389.44" y="951.63" as="sourcePoint"/>
                        <mxPoint x="206.44" y="983.63" as="targetPoint"/>
                    </mxGeometry>
                </mxCell>
                <mxCell id="vFhErmx-uWJT_EBI2WYM-128" style="edgeStyle=orthogonalEdgeStyle;rounded=0;orthogonalLoop=1;jettySize=auto;html=1;exitX=0.5;exitY=0;exitDx=0;exitDy=0;exitPerimeter=0;entryX=1;entryY=0.5;entryDx=0;entryDy=0;" parent="WIyWlLk6GJQsqaUBKTNV-1" source="vFhErmx-uWJT_EBI2WYM-129" target="vFhErmx-uWJT_EBI2WYM-95" edge="1">
                    <mxGeometry relative="1" as="geometry">
                        <Array as="points">
                            <mxPoint x="714.44" y="548.63"/>
                        </Array>
                    </mxGeometry>
                </mxCell>
                <mxCell id="vFhErmx-uWJT_EBI2WYM-129" value="Ingrese una opciÃ³n correcta" style="strokeWidth=2;html=1;shape=mxgraph.flowchart.document2;whiteSpace=wrap;size=0.25;" parent="WIyWlLk6GJQsqaUBKTNV-1" vertex="1">
                    <mxGeometry x="670.44" y="608.63" width="100" height="60" as="geometry"/>
                </mxCell>
                <mxCell id="vFhErmx-uWJT_EBI2WYM-130" style="edgeStyle=orthogonalEdgeStyle;rounded=0;orthogonalLoop=1;jettySize=auto;html=1;exitX=1;exitY=0.5;exitDx=0;exitDy=0;entryX=0;entryY=0.5;entryDx=0;entryDy=0;entryPerimeter=0;" parent="WIyWlLk6GJQsqaUBKTNV-1" source="vFhErmx-uWJT_EBI2WYM-113" target="vFhErmx-uWJT_EBI2WYM-129" edge="1">
                    <mxGeometry relative="1" as="geometry"/>
                </mxCell>
                <mxCell id="vFhErmx-uWJT_EBI2WYM-131" value="No" style="edgeLabel;html=1;align=center;verticalAlign=middle;resizable=0;points=[];" parent="vFhErmx-uWJT_EBI2WYM-130" vertex="1" connectable="0">
                    <mxGeometry x="0.0668" y="-4" relative="1" as="geometry">
                        <mxPoint x="-8" y="-4" as="offset"/>
                    </mxGeometry>
                </mxCell>
                <mxCell id="vFhErmx-uWJT_EBI2WYM-132" style="edgeStyle=orthogonalEdgeStyle;rounded=0;orthogonalLoop=1;jettySize=auto;html=1;exitX=0.5;exitY=1;exitDx=0;exitDy=0;entryX=0.5;entryY=0;entryDx=0;entryDy=0;" parent="WIyWlLk6GJQsqaUBKTNV-1" source="vFhErmx-uWJT_EBI2WYM-133" target="vFhErmx-uWJT_EBI2WYM-138" edge="1">
                    <mxGeometry relative="1" as="geometry"/>
                </mxCell>
                <mxCell id="vFhErmx-uWJT_EBI2WYM-133" value="Fecha_hoy" style="rounded=0;whiteSpace=wrap;html=1;" parent="WIyWlLk6GJQsqaUBKTNV-1" vertex="1">
                    <mxGeometry x="309.44" y="179.63" width="110" height="40" as="geometry"/>
                </mxCell>
                <mxCell id="vFhErmx-uWJT_EBI2WYM-134" style="edgeStyle=orthogonalEdgeStyle;rounded=0;orthogonalLoop=1;jettySize=auto;html=1;exitX=0.5;exitY=1;exitDx=0;exitDy=0;entryX=0.5;entryY=0;entryDx=0;entryDy=0;" parent="WIyWlLk6GJQsqaUBKTNV-1" source="vFhErmx-uWJT_EBI2WYM-138" target="vFhErmx-uWJT_EBI2WYM-143" edge="1">
                    <mxGeometry relative="1" as="geometry"/>
                </mxCell>
                <mxCell id="vFhErmx-uWJT_EBI2WYM-135" value="Si" style="edgeLabel;html=1;align=center;verticalAlign=middle;resizable=0;points=[];" parent="vFhErmx-uWJT_EBI2WYM-134" vertex="1" connectable="0">
                    <mxGeometry x="0.364" y="5" relative="1" as="geometry">
                        <mxPoint x="-5" y="-9" as="offset"/>
                    </mxGeometry>
                </mxCell>
                <mxCell id="vFhErmx-uWJT_EBI2WYM-136" style="edgeStyle=orthogonalEdgeStyle;rounded=0;orthogonalLoop=1;jettySize=auto;html=1;exitX=1;exitY=0.5;exitDx=0;exitDy=0;entryX=0.5;entryY=0;entryDx=0;entryDy=0;" parent="WIyWlLk6GJQsqaUBKTNV-1" source="vFhErmx-uWJT_EBI2WYM-138" target="vFhErmx-uWJT_EBI2WYM-95" edge="1">
                    <mxGeometry relative="1" as="geometry">
                        <Array as="points">
                            <mxPoint x="445.44" y="273.63"/>
                            <mxPoint x="445.44" y="503.63"/>
                            <mxPoint x="367.44" y="503.63"/>
                        </Array>
                    </mxGeometry>
                </mxCell>
                <mxCell id="vFhErmx-uWJT_EBI2WYM-137" value="No" style="edgeLabel;html=1;align=center;verticalAlign=middle;resizable=0;points=[];" parent="vFhErmx-uWJT_EBI2WYM-136" vertex="1" connectable="0">
                    <mxGeometry x="-0.489" y="-2" relative="1" as="geometry">
                        <mxPoint as="offset"/>
                    </mxGeometry>
                </mxCell>
                <mxCell id="vFhErmx-uWJT_EBI2WYM-138" value="Hoy es fecha importante?" style="rhombus;whiteSpace=wrap;html=1;" parent="WIyWlLk6GJQsqaUBKTNV-1" vertex="1">
                    <mxGeometry x="303.44" y="243.63" width="122" height="60" as="geometry"/>
                </mxCell>
                <mxCell id="vFhErmx-uWJT_EBI2WYM-139" value="Esto por si hay alguna&amp;nbsp;&lt;div&gt;auditoria o&amp;nbsp;&lt;span style=&quot;background-color: initial;&quot;&gt;algÃºn plazo legal&lt;/span&gt;&lt;/div&gt;" style="text;html=1;align=center;verticalAlign=middle;resizable=0;points=[];autosize=1;strokeColor=none;fillColor=none;" parent="WIyWlLk6GJQsqaUBKTNV-1" vertex="1">
                    <mxGeometry x="139.44" y="233.63" width="170" height="40" as="geometry"/>
                </mxCell>
                <mxCell id="vFhErmx-uWJT_EBI2WYM-140" style="edgeStyle=orthogonalEdgeStyle;rounded=0;orthogonalLoop=1;jettySize=auto;html=1;exitX=0.493;exitY=0.798;exitDx=0;exitDy=0;exitPerimeter=0;entryX=0.5;entryY=0;entryDx=0;entryDy=0;" parent="WIyWlLk6GJQsqaUBKTNV-1" source="vFhErmx-uWJT_EBI2WYM-141" target="vFhErmx-uWJT_EBI2WYM-95" edge="1">
                    <mxGeometry relative="1" as="geometry">
                        <mxPoint x="523.44" y="483.63" as="targetPoint"/>
                    </mxGeometry>
                </mxCell>
                <mxCell id="vFhErmx-uWJT_EBI2WYM-141" value="Hoy Fecha_hoy&lt;div&gt;hay Suceso_fecha&lt;/div&gt;" style="shape=document;whiteSpace=wrap;html=1;boundedLbl=1;" parent="WIyWlLk6GJQsqaUBKTNV-1" vertex="1">
                    <mxGeometry x="307.44" y="403.63" width="120" height="80" as="geometry"/>
                </mxCell>
                <mxCell id="vFhErmx-uWJT_EBI2WYM-142" style="edgeStyle=orthogonalEdgeStyle;rounded=0;orthogonalLoop=1;jettySize=auto;html=1;exitX=0.5;exitY=1;exitDx=0;exitDy=0;entryX=0.5;entryY=0;entryDx=0;entryDy=0;" parent="WIyWlLk6GJQsqaUBKTNV-1" source="vFhErmx-uWJT_EBI2WYM-143" target="vFhErmx-uWJT_EBI2WYM-141" edge="1">
                    <mxGeometry relative="1" as="geometry"/>
                </mxCell>
                <mxCell id="vFhErmx-uWJT_EBI2WYM-143" value="Suceso_fecha" style="rounded=0;whiteSpace=wrap;html=1;" parent="WIyWlLk6GJQsqaUBKTNV-1" vertex="1">
                    <mxGeometry x="310.44" y="333.63" width="110" height="40" as="geometry"/>
                </mxCell>
                <mxCell id="vFhErmx-uWJT_EBI2WYM-181" value="" style="edgeStyle=orthogonalEdgeStyle;rounded=0;orthogonalLoop=1;jettySize=auto;html=1;" parent="WIyWlLk6GJQsqaUBKTNV-1" source="vFhErmx-uWJT_EBI2WYM-182" target="vFhErmx-uWJT_EBI2WYM-185" edge="1">
                    <mxGeometry relative="1" as="geometry"/>
                </mxCell>
                <mxCell id="vFhErmx-uWJT_EBI2WYM-182" value="Inicio" style="strokeWidth=2;html=1;shape=mxgraph.flowchart.start_1;whiteSpace=wrap;" parent="WIyWlLk6GJQsqaUBKTNV-1" vertex="1">
                    <mxGeometry x="1173.07" y="111.63" width="90" height="38" as="geometry"/>
                </mxCell>
                <mxCell id="vFhErmx-uWJT_EBI2WYM-183" value="&lt;font style=&quot;font-size: 18px;&quot;&gt;&lt;b&gt;&lt;u&gt;Sector Administrativo&lt;/u&gt;&lt;/b&gt;&lt;/font&gt;" style="text;html=1;align=center;verticalAlign=middle;resizable=0;points=[];autosize=1;strokeColor=none;fillColor=none;" parent="WIyWlLk6GJQsqaUBKTNV-1" vertex="1">
                    <mxGeometry x="1135.25" y="51.63" width="210" height="40" as="geometry"/>
                </mxCell>
                <mxCell id="vFhErmx-uWJT_EBI2WYM-184" style="edgeStyle=orthogonalEdgeStyle;rounded=0;orthogonalLoop=1;jettySize=auto;html=1;exitX=0.5;exitY=1;exitDx=0;exitDy=0;entryX=0.5;entryY=0;entryDx=0;entryDy=0;" parent="WIyWlLk6GJQsqaUBKTNV-1" source="vFhErmx-uWJT_EBI2WYM-185" target="vFhErmx-uWJT_EBI2WYM-187" edge="1">
                    <mxGeometry relative="1" as="geometry"/>
                </mxCell>
                <mxCell id="vFhErmx-uWJT_EBI2WYM-185" value="Id_cliente" style="shape=parallelogram;perimeter=parallelogramPerimeter;whiteSpace=wrap;html=1;fixedSize=1;strokeWidth=2;" parent="WIyWlLk6GJQsqaUBKTNV-1" vertex="1">
                    <mxGeometry x="1158.07" y="173.63" width="120" height="35" as="geometry"/>
                </mxCell>
                <mxCell id="vFhErmx-uWJT_EBI2WYM-186" value="" style="edgeStyle=orthogonalEdgeStyle;rounded=0;orthogonalLoop=1;jettySize=auto;html=1;" parent="WIyWlLk6GJQsqaUBKTNV-1" source="vFhErmx-uWJT_EBI2WYM-187" target="vFhErmx-uWJT_EBI2WYM-188" edge="1">
                    <mxGeometry relative="1" as="geometry"/>
                </mxCell>
                <mxCell id="vFhErmx-uWJT_EBI2WYM-187" value="Nombre&lt;div&gt;Apellido&lt;/div&gt;&lt;div&gt;Telefono&lt;/div&gt;&lt;div&gt;Correo_Electronico&lt;/div&gt;" style="rounded=0;whiteSpace=wrap;html=1;" parent="WIyWlLk6GJQsqaUBKTNV-1" vertex="1">
                    <mxGeometry x="1162.07" y="243.63" width="116" height="60" as="geometry"/>
                </mxCell>
                <mxCell id="vFhErmx-uWJT_EBI2WYM-188" value="Nombre&lt;div&gt;Apellido&lt;/div&gt;&lt;div&gt;Telefono&lt;/div&gt;&lt;div&gt;Correo_Electronico&lt;/div&gt;" style="shape=document;whiteSpace=wrap;html=1;boundedLbl=1;rounded=0;" parent="WIyWlLk6GJQsqaUBKTNV-1" vertex="1">
                    <mxGeometry x="1159.07" y="333.63" width="120" height="80" as="geometry"/>
                </mxCell>
                <mxCell id="vFhErmx-uWJT_EBI2WYM-189" value="Agarra estos datos&lt;div&gt;de la base de datos&lt;/div&gt;" style="text;html=1;align=center;verticalAlign=middle;resizable=0;points=[];autosize=1;strokeColor=none;fillColor=none;" parent="WIyWlLk6GJQsqaUBKTNV-1" vertex="1">
                    <mxGeometry x="1029.0700000000002" y="243.63" width="130" height="40" as="geometry"/>
                </mxCell>
                <mxCell id="vFhErmx-uWJT_EBI2WYM-190" value="" style="edgeStyle=orthogonalEdgeStyle;rounded=0;orthogonalLoop=1;jettySize=auto;html=1;" parent="WIyWlLk6GJQsqaUBKTNV-1" edge="1">
                    <mxGeometry relative="1" as="geometry">
                        <mxPoint x="1219.33" y="403.63" as="sourcePoint"/>
                        <mxPoint x="1220.33" y="443.63" as="targetPoint"/>
                    </mxGeometry>
                </mxCell>
                <mxCell id="vFhErmx-uWJT_EBI2WYM-191" value="" style="edgeStyle=orthogonalEdgeStyle;rounded=0;orthogonalLoop=1;jettySize=auto;html=1;entryX=0;entryY=0.5;entryDx=0;entryDy=0;" parent="WIyWlLk6GJQsqaUBKTNV-1" source="vFhErmx-uWJT_EBI2WYM-194" target="vFhErmx-uWJT_EBI2WYM-198" edge="1">
                    <mxGeometry relative="1" as="geometry">
                        <mxPoint x="1307.07" y="551.6300000000002" as="targetPoint"/>
                    </mxGeometry>
                </mxCell>
                <mxCell id="vFhErmx-uWJT_EBI2WYM-192" value="No" style="edgeLabel;html=1;align=center;verticalAlign=middle;resizable=0;points=[];" parent="vFhErmx-uWJT_EBI2WYM-191" vertex="1" connectable="0">
                    <mxGeometry x="-0.1185" y="2" relative="1" as="geometry">
                        <mxPoint as="offset"/>
                    </mxGeometry>
                </mxCell>
                <mxCell id="vFhErmx-uWJT_EBI2WYM-193" value="" style="edgeStyle=orthogonalEdgeStyle;rounded=0;orthogonalLoop=1;jettySize=auto;html=1;" parent="WIyWlLk6GJQsqaUBKTNV-1" source="vFhErmx-uWJT_EBI2WYM-194" target="vFhErmx-uWJT_EBI2WYM-201" edge="1">
                    <mxGeometry relative="1" as="geometry"/>
                </mxCell>
                <mxCell id="vFhErmx-uWJT_EBI2WYM-194" value="Caso pagado?" style="rhombus;whiteSpace=wrap;html=1;" parent="WIyWlLk6GJQsqaUBKTNV-1" vertex="1">
                    <mxGeometry x="1158.07" y="519.63" width="121" height="64" as="geometry"/>
                </mxCell>
                <mxCell id="vFhErmx-uWJT_EBI2WYM-195" style="edgeStyle=orthogonalEdgeStyle;rounded=0;orthogonalLoop=1;jettySize=auto;html=1;exitX=0.5;exitY=1;exitDx=0;exitDy=0;entryX=0.5;entryY=0;entryDx=0;entryDy=0;" parent="WIyWlLk6GJQsqaUBKTNV-1" source="vFhErmx-uWJT_EBI2WYM-196" target="vFhErmx-uWJT_EBI2WYM-194" edge="1">
                    <mxGeometry relative="1" as="geometry"/>
                </mxCell>
                <mxCell id="vFhErmx-uWJT_EBI2WYM-196" value="Num_caso" style="shape=parallelogram;perimeter=parallelogramPerimeter;whiteSpace=wrap;html=1;fixedSize=1;" parent="WIyWlLk6GJQsqaUBKTNV-1" vertex="1">
                    <mxGeometry x="1153.07" y="443.63" width="130" height="30" as="geometry"/>
                </mxCell>
                <mxCell id="vFhErmx-uWJT_EBI2WYM-197" style="edgeStyle=orthogonalEdgeStyle;rounded=0;orthogonalLoop=1;jettySize=auto;html=1;exitX=0.5;exitY=1;exitDx=0;exitDy=0;" parent="WIyWlLk6GJQsqaUBKTNV-1" source="vFhErmx-uWJT_EBI2WYM-198" edge="1">
                    <mxGeometry relative="1" as="geometry">
                        <mxPoint x="1207.07" y="1043.63" as="targetPoint"/>
                        <Array as="points">
                            <mxPoint x="1417.07" y="1043.63"/>
                        </Array>
                    </mxGeometry>
                </mxCell>
                <mxCell id="vFhErmx-uWJT_EBI2WYM-198" value="Se envia notificacion al cliente para que pague" style="rounded=1;whiteSpace=wrap;html=1;absoluteArcSize=1;arcSize=14;strokeWidth=2;" parent="WIyWlLk6GJQsqaUBKTNV-1" vertex="1">
                    <mxGeometry x="1367.07" y="501.63" width="100" height="100" as="geometry"/>
                </mxCell>
                <mxCell id="vFhErmx-uWJT_EBI2WYM-199" style="edgeStyle=orthogonalEdgeStyle;rounded=0;orthogonalLoop=1;jettySize=auto;html=1;exitX=0.5;exitY=1;exitDx=0;exitDy=0;entryX=0.5;entryY=0;entryDx=0;entryDy=0;" parent="WIyWlLk6GJQsqaUBKTNV-1" source="vFhErmx-uWJT_EBI2WYM-201" target="vFhErmx-uWJT_EBI2WYM-203" edge="1">
                    <mxGeometry relative="1" as="geometry"/>
                </mxCell>
                <mxCell id="vFhErmx-uWJT_EBI2WYM-200" value="Si" style="edgeLabel;html=1;align=center;verticalAlign=middle;resizable=0;points=[];" parent="vFhErmx-uWJT_EBI2WYM-199" vertex="1" connectable="0">
                    <mxGeometry x="-0.323" y="2" relative="1" as="geometry">
                        <mxPoint x="-4" y="4" as="offset"/>
                    </mxGeometry>
                </mxCell>
                <mxCell id="vFhErmx-uWJT_EBI2WYM-201" value="Desea ver la informacion del pago?" style="rhombus;whiteSpace=wrap;html=1;" parent="WIyWlLk6GJQsqaUBKTNV-1" vertex="1">
                    <mxGeometry x="1138.07" y="663.63" width="161" height="90" as="geometry"/>
                </mxCell>
                <mxCell id="vFhErmx-uWJT_EBI2WYM-202" value="" style="edgeStyle=orthogonalEdgeStyle;rounded=0;orthogonalLoop=1;jettySize=auto;html=1;" parent="WIyWlLk6GJQsqaUBKTNV-1" source="vFhErmx-uWJT_EBI2WYM-203" target="vFhErmx-uWJT_EBI2WYM-205" edge="1">
                    <mxGeometry relative="1" as="geometry"/>
                </mxCell>
                <mxCell id="vFhErmx-uWJT_EBI2WYM-203" value="Num_cuotas&lt;div&gt;Fecha_cuotas&lt;br&gt;&lt;div&gt;Total_cuotas&lt;/div&gt;&lt;div&gt;Total&lt;/div&gt;&lt;/div&gt;" style="rounded=0;whiteSpace=wrap;html=1;" parent="WIyWlLk6GJQsqaUBKTNV-1" vertex="1">
                    <mxGeometry x="1160.07" y="813.63" width="116" height="60" as="geometry"/>
                </mxCell>
                <mxCell id="vFhErmx-uWJT_EBI2WYM-204" value="" style="edgeStyle=orthogonalEdgeStyle;rounded=0;orthogonalLoop=1;jettySize=auto;html=1;entryX=0.5;entryY=0;entryDx=0;entryDy=0;entryPerimeter=0;exitX=0.5;exitY=0.842;exitDx=0;exitDy=0;exitPerimeter=0;" parent="WIyWlLk6GJQsqaUBKTNV-1" source="vFhErmx-uWJT_EBI2WYM-205" target="vFhErmx-uWJT_EBI2WYM-206" edge="1">
                    <mxGeometry relative="1" as="geometry">
                        <mxPoint x="1218.07" y="1073.13" as="targetPoint"/>
                    </mxGeometry>
                </mxCell>
                <mxCell id="vFhErmx-uWJT_EBI2WYM-205" value="Num_cuotas&lt;div&gt;Fecha_cuotas&lt;br&gt;&lt;div&gt;Total_cuotas&lt;/div&gt;&lt;div&gt;Total&lt;/div&gt;&lt;/div&gt;" style="shape=document;whiteSpace=wrap;html=1;boundedLbl=1;rounded=0;" parent="WIyWlLk6GJQsqaUBKTNV-1" vertex="1">
                    <mxGeometry x="1158.07" y="914.63" width="120" height="79" as="geometry"/>
                </mxCell>
                <mxCell id="vFhErmx-uWJT_EBI2WYM-206" value="Fin" style="strokeWidth=2;html=1;shape=mxgraph.flowchart.terminator;whiteSpace=wrap;" parent="WIyWlLk6GJQsqaUBKTNV-1" vertex="1">
                    <mxGeometry x="1176.07" y="1025.63" width="86" height="30" as="geometry"/>
                </mxCell>
                <mxCell id="vFhErmx-uWJT_EBI2WYM-207" style="edgeStyle=orthogonalEdgeStyle;rounded=0;orthogonalLoop=1;jettySize=auto;html=1;exitX=1;exitY=0.5;exitDx=0;exitDy=0;entryX=1;entryY=0.5;entryDx=0;entryDy=0;entryPerimeter=0;" parent="WIyWlLk6GJQsqaUBKTNV-1" source="vFhErmx-uWJT_EBI2WYM-201" target="vFhErmx-uWJT_EBI2WYM-206" edge="1">
                    <mxGeometry relative="1" as="geometry"/>
                </mxCell>
                <mxCell id="vFhErmx-uWJT_EBI2WYM-208" value="No" style="edgeLabel;html=1;align=center;verticalAlign=middle;resizable=0;points=[];" parent="vFhErmx-uWJT_EBI2WYM-207" vertex="1" connectable="0">
                    <mxGeometry x="-0.2026" y="1" relative="1" as="geometry">
                        <mxPoint as="offset"/>
                    </mxGeometry>
                </mxCell>
                <mxCell id="204" value="" style="rounded=0;whiteSpace=wrap;html=1;rotation=-90;" parent="WIyWlLk6GJQsqaUBKTNV-1" vertex="1">
                    <mxGeometry x="1623.1" y="103.1" width="1410.35" height="1280" as="geometry"/>
                </mxCell>
                <mxCell id="62" style="edgeStyle=none;html=1;exitX=0.5;exitY=1;exitDx=0;exitDy=0;exitPerimeter=0;entryX=0.5;entryY=0;entryDx=0;entryDy=0;" parent="WIyWlLk6GJQsqaUBKTNV-1" source="63" target="108" edge="1">
                    <mxGeometry relative="1" as="geometry"/>
                </mxCell>
                <mxCell id="65" style="edgeStyle=none;html=1;exitX=0.5;exitY=1;exitDx=0;exitDy=0;entryX=0.5;entryY=0;entryDx=0;entryDy=0;entryPerimeter=0;" parent="WIyWlLk6GJQsqaUBKTNV-1" source="66" target="106" edge="1">
                    <mxGeometry relative="1" as="geometry">
                        <mxPoint x="2104.4900000000002" y="1171.13" as="targetPoint"/>
                        <mxPoint x="2318.8700000000003" y="1350.63" as="sourcePoint"/>
                    </mxGeometry>
                </mxCell>
                <mxCell id="66" value="Continuar = si" style="swimlane;whiteSpace=wrap;html=1;startSize=23;" parent="WIyWlLk6GJQsqaUBKTNV-1" vertex="1">
                    <mxGeometry x="1716.55" y="240" width="1223.45" height="1128.38" as="geometry"/>
                </mxCell>
                <mxCell id="67" style="edgeStyle=none;html=1;entryX=0.5;entryY=0;entryDx=0;entryDy=0;" parent="66" target="69" edge="1">
                    <mxGeometry relative="1" as="geometry">
                        <mxPoint x="557.3199999999999" y="104" as="sourcePoint"/>
                    </mxGeometry>
                </mxCell>
                <mxCell id="68" style="edgeStyle=none;html=1;exitX=0;exitY=0.5;exitDx=0;exitDy=0;entryX=0.5;entryY=0;entryDx=0;entryDy=0;entryPerimeter=0;" parent="66" source="69" target="74" edge="1">
                    <mxGeometry relative="1" as="geometry">
                        <mxPoint x="341" y="156" as="sourcePoint"/>
                        <mxPoint x="159" y="224" as="targetPoint"/>
                        <Array as="points">
                            <mxPoint x="194" y="154"/>
                        </Array>
                    </mxGeometry>
                </mxCell>
                <mxCell id="69" value="Opcion" style="shape=parallelogram;perimeter=parallelogramPerimeter;whiteSpace=wrap;html=1;fixedSize=1;" parent="66" vertex="1">
                    <mxGeometry x="492.32" y="140" width="130" height="30" as="geometry"/>
                </mxCell>
                <mxCell id="70" value="Ingrese que quiere hacer:&lt;br&gt;ingresar trabajador&lt;br&gt;Ver datos del trabajador" style="shape=document;whiteSpace=wrap;html=1;boundedLbl=1;" parent="66" vertex="1">
                    <mxGeometry x="477.32" y="34" width="160" height="80" as="geometry"/>
                </mxCell>
                <mxCell id="71" style="edgeStyle=none;html=1;exitX=1;exitY=0.5;exitDx=0;exitDy=0;entryX=0;entryY=0.5;entryDx=0;entryDy=0;" parent="66" source="74" target="79" edge="1">
                    <mxGeometry relative="1" as="geometry"/>
                </mxCell>
                <mxCell id="72" value="No" style="edgeLabel;html=1;align=center;verticalAlign=middle;resizable=0;points=[];" parent="71" vertex="1" connectable="0">
                    <mxGeometry x="-0.1802" y="-1" relative="1" as="geometry">
                        <mxPoint as="offset"/>
                    </mxGeometry>
                </mxCell>
                <mxCell id="73" style="edgeStyle=none;html=1;exitX=0.5;exitY=1;exitDx=0;exitDy=0;entryX=0.5;entryY=0;entryDx=0;entryDy=0;" parent="66" source="74" target="86" edge="1">
                    <mxGeometry relative="1" as="geometry"/>
                </mxCell>
                <mxCell id="179" value="Si" style="edgeLabel;html=1;align=center;verticalAlign=middle;resizable=0;points=[];" parent="73" vertex="1" connectable="0">
                    <mxGeometry x="-0.3644" y="1" relative="1" as="geometry">
                        <mxPoint x="-2" as="offset"/>
                    </mxGeometry>
                </mxCell>
                <mxCell id="74" value="Opcion = Ingresar" style="rhombus;whiteSpace=wrap;html=1;" parent="66" vertex="1">
                    <mxGeometry x="151" y="224" width="86.25" height="60" as="geometry"/>
                </mxCell>
                <mxCell id="77" style="edgeStyle=none;html=1;exitX=0.5;exitY=1;exitDx=0;exitDy=0;entryX=0.5;entryY=0;entryDx=0;entryDy=0;" parent="66" source="79" target="80" edge="1">
                    <mxGeometry relative="1" as="geometry"/>
                </mxCell>
                <mxCell id="78" value="Si" style="edgeLabel;html=1;align=center;verticalAlign=middle;resizable=0;points=[];" parent="77" vertex="1" connectable="0">
                    <mxGeometry x="-0.3808" y="1" relative="1" as="geometry">
                        <mxPoint x="-2" y="1" as="offset"/>
                    </mxGeometry>
                </mxCell>
                <mxCell id="113" style="edgeStyle=none;html=1;exitX=1;exitY=0.5;exitDx=0;exitDy=0;entryX=0;entryY=0.5;entryDx=0;entryDy=0;" parent="66" source="79" target="112" edge="1">
                    <mxGeometry relative="1" as="geometry"/>
                </mxCell>
                <mxCell id="166" value="No" style="edgeLabel;html=1;align=center;verticalAlign=middle;resizable=0;points=[];" parent="113" vertex="1" connectable="0">
                    <mxGeometry x="-0.1112" y="2" relative="1" as="geometry">
                        <mxPoint x="13" y="2" as="offset"/>
                    </mxGeometry>
                </mxCell>
                <mxCell id="79" value="Opcion = Ver" style="rhombus;whiteSpace=wrap;html=1;" parent="66" vertex="1">
                    <mxGeometry x="464" y="224" width="80" height="60" as="geometry"/>
                </mxCell>
                <mxCell id="80" value="Id_empleado&lt;div&gt;Fecha_hoy&lt;/div&gt;&lt;div&gt;horas_esperadas_T&lt;br&gt;&lt;/div&gt;&lt;div&gt;Tareas_por_hacer&lt;/div&gt;" style="shape=parallelogram;perimeter=parallelogramPerimeter;whiteSpace=wrap;html=1;fixedSize=1;strokeWidth=2;" parent="66" vertex="1">
                    <mxGeometry x="430.5" y="314" width="147" height="66" as="geometry"/>
                </mxCell>
                <mxCell id="81" style="edgeStyle=none;html=1;exitX=0.5;exitY=1;exitDx=0;exitDy=0;entryX=0.5;entryY=0;entryDx=0;entryDy=0;entryPerimeter=0;" parent="66" source="82" target="93" edge="1">
                    <mxGeometry relative="1" as="geometry">
                        <mxPoint x="504.50000000000045" y="568" as="targetPoint"/>
                        <Array as="points">
                            <mxPoint x="505" y="534"/>
                            <mxPoint x="311" y="534"/>
                        </Array>
                    </mxGeometry>
                </mxCell>
                <mxCell id="82" value="&lt;div&gt;&lt;span style=&quot;background-color: initial;&quot;&gt;horas_trabajadas_T&lt;/span&gt;&lt;/div&gt;&lt;div&gt;Tareas_hechas&lt;/div&gt;&lt;div&gt;fin_mes&lt;/div&gt;&lt;div&gt;&lt;span style=&quot;background-color: initial;&quot;&gt;sueldo_T&lt;/span&gt;&lt;/div&gt;&lt;div&gt;&lt;span style=&quot;background-color: initial;&quot;&gt;sueldo_hora&lt;/span&gt;&lt;/div&gt;" style="rounded=0;whiteSpace=wrap;html=1;" parent="66" vertex="1">
                    <mxGeometry x="446" y="404" width="116" height="96" as="geometry"/>
                </mxCell>
                <mxCell id="83" style="edgeStyle=orthogonalEdgeStyle;rounded=0;orthogonalLoop=1;jettySize=auto;html=1;exitX=0.5;exitY=1;exitDx=0;exitDy=0;entryX=0.5;entryY=0;entryDx=0;entryDy=0;" parent="66" source="80" target="82" edge="1">
                    <mxGeometry relative="1" as="geometry"/>
                </mxCell>
                <mxCell id="84" value="Agarra estos datos&lt;div&gt;de la base de datos&lt;/div&gt;" style="text;html=1;align=center;verticalAlign=middle;resizable=0;points=[];autosize=1;strokeColor=none;fillColor=none;" parent="66" vertex="1">
                    <mxGeometry x="314" y="404" width="130" height="40" as="geometry"/>
                </mxCell>
                <mxCell id="86" value="Nombre&lt;br&gt;Apellido&lt;br&gt;Puesto&lt;br&gt;Sueldo&lt;br&gt;Telefono&lt;br&gt;Mail" style="shape=parallelogram;perimeter=parallelogramPerimeter;whiteSpace=wrap;html=1;fixedSize=1;strokeWidth=2;" parent="66" vertex="1">
                    <mxGeometry x="134.69" y="314" width="120.31" height="86" as="geometry"/>
                </mxCell>
                <mxCell id="90" style="edgeStyle=none;html=1;exitX=1;exitY=0.5;exitDx=0;exitDy=0;exitPerimeter=0;entryX=0;entryY=0.5;entryDx=0;entryDy=0;entryPerimeter=0;" parent="66" source="93" target="100" edge="1">
                    <mxGeometry relative="1" as="geometry">
                        <mxPoint x="459.75" y="594" as="targetPoint"/>
                    </mxGeometry>
                </mxCell>
                <mxCell id="91" value="No" style="edgeLabel;html=1;align=center;verticalAlign=middle;resizable=0;points=[];" parent="90" vertex="1" connectable="0">
                    <mxGeometry x="-0.5961" y="-2" relative="1" as="geometry">
                        <mxPoint x="12" y="-2" as="offset"/>
                    </mxGeometry>
                </mxCell>
                <mxCell id="92" style="edgeStyle=none;html=1;exitX=0.5;exitY=1;exitDx=0;exitDy=0;exitPerimeter=0;entryX=0;entryY=0.25;entryDx=0;entryDy=0;" parent="66" source="93" target="103" edge="1">
                    <mxGeometry relative="1" as="geometry">
                        <Array as="points">
                            <mxPoint x="310.75" y="657"/>
                            <mxPoint x="259.75" y="657"/>
                            <mxPoint x="259.45000000000005" y="989"/>
                        </Array>
                    </mxGeometry>
                </mxCell>
                <mxCell id="93" value="Fecha_hoy != fin_mes?" style="strokeWidth=2;html=1;shape=mxgraph.flowchart.decision;whiteSpace=wrap;" parent="66" vertex="1">
                    <mxGeometry x="237.25" y="554" width="147" height="80" as="geometry"/>
                </mxCell>
                <mxCell id="95" value="sueldo_T -= sueldo_hora * 0,05" style="whiteSpace=wrap;html=1;strokeWidth=2;" parent="66" vertex="1">
                    <mxGeometry x="606.14" y="670" width="158.5" height="60" as="geometry"/>
                </mxCell>
                <mxCell id="98" style="edgeStyle=none;html=1;exitX=0.5;exitY=1;exitDx=0;exitDy=0;exitPerimeter=0;entryX=0.5;entryY=0;entryDx=0;entryDy=0;entryPerimeter=0;" parent="66" source="100" target="193" edge="1">
                    <mxGeometry relative="1" as="geometry">
                        <Array as="points">
                            <mxPoint x="558.45" y="670"/>
                            <mxPoint x="437.45000000000005" y="670"/>
                        </Array>
                        <mxPoint x="467.2500000000002" y="714" as="targetPoint"/>
                    </mxGeometry>
                </mxCell>
                <mxCell id="99" value="Si" style="edgeLabel;html=1;align=center;verticalAlign=middle;resizable=0;points=[];" parent="98" vertex="1" connectable="0">
                    <mxGeometry x="-0.5602" y="-2" relative="1" as="geometry">
                        <mxPoint x="-46" y="3" as="offset"/>
                    </mxGeometry>
                </mxCell>
                <mxCell id="186" style="edgeStyle=none;html=1;exitX=1;exitY=0.5;exitDx=0;exitDy=0;exitPerimeter=0;entryX=0.5;entryY=0;entryDx=0;entryDy=0;" parent="66" source="100" target="95" edge="1">
                    <mxGeometry relative="1" as="geometry">
                        <Array as="points">
                            <mxPoint x="685.45" y="594"/>
                        </Array>
                    </mxGeometry>
                </mxCell>
                <mxCell id="187" value="No" style="edgeLabel;html=1;align=center;verticalAlign=middle;resizable=0;points=[];" parent="186" vertex="1" connectable="0">
                    <mxGeometry x="-0.2074" y="-4" relative="1" as="geometry">
                        <mxPoint x="3" y="11" as="offset"/>
                    </mxGeometry>
                </mxCell>
                <mxCell id="100" value="Tareas_hechas &amp;gt;=&lt;br&gt;Tareas_por_hacer&lt;br&gt;y Tareas_hechas antes &lt;br&gt;o en la fecha limite?" style="strokeWidth=2;html=1;shape=mxgraph.flowchart.decision;whiteSpace=wrap;" parent="66" vertex="1">
                    <mxGeometry x="447.19" y="534.5" width="220.25" height="119" as="geometry"/>
                </mxCell>
                <mxCell id="103" value="Quiere continuar en el programa?" style="shape=document;whiteSpace=wrap;html=1;boundedLbl=1;" parent="66" vertex="1">
                    <mxGeometry x="514.88" y="975.63" width="160" height="53" as="geometry"/>
                </mxCell>
                <mxCell id="104" value="Continuar" style="shape=parallelogram;perimeter=parallelogramPerimeter;whiteSpace=wrap;html=1;fixedSize=1;strokeWidth=2;" parent="66" vertex="1">
                    <mxGeometry x="534.8800000000001" y="1045.63" width="120" height="35" as="geometry"/>
                </mxCell>
                <mxCell id="105" value="" style="edgeStyle=none;html=1;exitX=0.509;exitY=0.86;exitDx=0;exitDy=0;exitPerimeter=0;entryX=0.5;entryY=0;entryDx=0;entryDy=0;" parent="66" source="103" target="104" edge="1">
                    <mxGeometry relative="1" as="geometry">
                        <mxPoint x="596.3800000000001" y="1045.63" as="targetPoint"/>
                    </mxGeometry>
                </mxCell>
                <mxCell id="155" style="edgeStyle=none;html=1;exitX=0.5;exitY=1;exitDx=0;exitDy=0;entryX=0.5;entryY=0;entryDx=0;entryDy=0;" parent="66" source="112" target="154" edge="1">
                    <mxGeometry relative="1" as="geometry"/>
                </mxCell>
                <mxCell id="165" value="Si" style="edgeLabel;html=1;align=center;verticalAlign=middle;resizable=0;points=[];" parent="155" vertex="1" connectable="0">
                    <mxGeometry x="-0.2666" relative="1" as="geometry">
                        <mxPoint x="-1" as="offset"/>
                    </mxGeometry>
                </mxCell>
                <mxCell id="112" value="Opcion = Ascender" style="rhombus;whiteSpace=wrap;html=1;" parent="66" vertex="1">
                    <mxGeometry x="800.07" y="224" width="98.25" height="60" as="geometry"/>
                </mxCell>
                <mxCell id="157" style="edgeStyle=none;html=1;exitX=0.5;exitY=1;exitDx=0;exitDy=0;entryX=0.5;entryY=0;entryDx=0;entryDy=0;" parent="66" source="154" target="156" edge="1">
                    <mxGeometry relative="1" as="geometry"/>
                </mxCell>
                <mxCell id="154" value="Id_empleado&lt;div&gt;Fecha_hoy&lt;/div&gt;&lt;div&gt;Nuevo_Puesto&lt;/div&gt;&lt;div&gt;Nuevo_Salario&lt;/div&gt;" style="shape=parallelogram;perimeter=parallelogramPerimeter;whiteSpace=wrap;html=1;fixedSize=1;strokeWidth=2;" parent="66" vertex="1">
                    <mxGeometry x="789.2" y="334" width="120" height="66" as="geometry"/>
                </mxCell>
                <mxCell id="159" style="edgeStyle=none;html=1;exitX=0.5;exitY=1;exitDx=0;exitDy=0;entryX=0.5;entryY=0;entryDx=0;entryDy=0;" parent="66" source="156" target="158" edge="1">
                    <mxGeometry relative="1" as="geometry"/>
                </mxCell>
                <mxCell id="156" value="Puesto&lt;br&gt;Salario" style="rounded=0;whiteSpace=wrap;html=1;" parent="66" vertex="1">
                    <mxGeometry x="801.2" y="430.25" width="97.12" height="47.5" as="geometry"/>
                </mxCell>
                <mxCell id="158" value="Puesto = Nuevo_Puesto&lt;br&gt;Salario = Nuevo_Salario" style="rounded=1;whiteSpace=wrap;html=1;" parent="66" vertex="1">
                    <mxGeometry x="764.6400000000001" y="514" width="169.12" height="66" as="geometry"/>
                </mxCell>
                <mxCell id="185" value="Se suben los datos&lt;br&gt;a la base de datos" style="text;html=1;align=center;verticalAlign=middle;resizable=0;points=[];autosize=1;strokeColor=none;fillColor=none;" parent="66" vertex="1">
                    <mxGeometry x="524.8799999999999" y="845.6300000000001" width="130" height="40" as="geometry"/>
                </mxCell>
                <mxCell id="197" value="" style="edgeStyle=none;html=1;" parent="66" source="193" target="196" edge="1">
                    <mxGeometry relative="1" as="geometry"/>
                </mxCell>
                <mxCell id="203" value="Si" style="edgeLabel;html=1;align=center;verticalAlign=middle;resizable=0;points=[];" parent="197" vertex="1" connectable="0">
                    <mxGeometry x="-0.6278" y="-1" relative="1" as="geometry">
                        <mxPoint y="8" as="offset"/>
                    </mxGeometry>
                </mxCell>
                <mxCell id="198" style="edgeStyle=none;html=1;exitX=1;exitY=0.5;exitDx=0;exitDy=0;exitPerimeter=0;entryX=0.25;entryY=0;entryDx=0;entryDy=0;" parent="66" source="193" target="103" edge="1">
                    <mxGeometry relative="1" as="geometry">
                        <Array as="points">
                            <mxPoint x="524.45" y="950"/>
                            <mxPoint x="554.45" y="950"/>
                        </Array>
                    </mxGeometry>
                </mxCell>
                <mxCell id="199" value="No" style="edgeLabel;html=1;align=center;verticalAlign=middle;resizable=0;points=[];" parent="198" vertex="1" connectable="0">
                    <mxGeometry x="-0.6918" y="1" relative="1" as="geometry">
                        <mxPoint as="offset"/>
                    </mxGeometry>
                </mxCell>
                <mxCell id="193" value="Quiere darle un bono al empleado?" style="strokeWidth=2;html=1;shape=mxgraph.flowchart.decision;whiteSpace=wrap;" parent="66" vertex="1">
                    <mxGeometry x="348.33" y="700" width="176.55" height="60" as="geometry"/>
                </mxCell>
                <mxCell id="201" value="" style="edgeStyle=none;html=1;" parent="66" source="196" target="200" edge="1">
                    <mxGeometry relative="1" as="geometry"/>
                </mxCell>
                <mxCell id="196" value="Bono" style="shape=parallelogram;perimeter=parallelogramPerimeter;whiteSpace=wrap;html=1;fixedSize=1;strokeWidth=2;" parent="66" vertex="1">
                    <mxGeometry x="376.61" y="795.63" width="120" height="30" as="geometry"/>
                </mxCell>
                <mxCell id="200" value="sueldo_T+=Bono" style="whiteSpace=wrap;html=1;strokeWidth=2;" parent="66" vertex="1">
                    <mxGeometry x="376.61" y="841.26" width="120" height="60" as="geometry"/>
                </mxCell>
                <mxCell id="167" value="Opcion = despedir" style="rhombus;whiteSpace=wrap;html=1;" parent="66" vertex="1">
                    <mxGeometry x="1043.1100000000004" y="224" width="90" height="60" as="geometry"/>
                </mxCell>
                <mxCell id="181" style="edgeStyle=none;html=1;exitX=1;exitY=0.5;exitDx=0;exitDy=0;entryX=1;entryY=0.5;entryDx=0;entryDy=0;" parent="66" source="167" target="70" edge="1">
                    <mxGeometry relative="1" as="geometry">
                        <Array as="points">
                            <mxPoint x="1159.45" y="254"/>
                            <mxPoint x="1159.45" y="74"/>
                        </Array>
                    </mxGeometry>
                </mxCell>
                <mxCell id="182" value="No" style="edgeLabel;html=1;align=center;verticalAlign=middle;resizable=0;points=[];" parent="181" vertex="1" connectable="0">
                    <mxGeometry x="0.1767" y="-1" relative="1" as="geometry">
                        <mxPoint as="offset"/>
                    </mxGeometry>
                </mxCell>
                <mxCell id="168" style="edgeStyle=none;html=1;exitX=1;exitY=0.5;exitDx=0;exitDy=0;entryX=0;entryY=0.5;entryDx=0;entryDy=0;" parent="66" source="112" target="167" edge="1">
                    <mxGeometry relative="1" as="geometry">
                        <mxPoint x="1033.1100000000008" y="272.1666666666665" as="targetPoint"/>
                    </mxGeometry>
                </mxCell>
                <mxCell id="169" value="No" style="edgeLabel;html=1;align=center;verticalAlign=middle;resizable=0;points=[];" parent="168" vertex="1" connectable="0">
                    <mxGeometry x="-0.1606" relative="1" as="geometry">
                        <mxPoint as="offset"/>
                    </mxGeometry>
                </mxCell>
                <mxCell id="106" value="Fin" style="strokeWidth=2;html=1;shape=mxgraph.flowchart.terminator;whiteSpace=wrap;" parent="WIyWlLk6GJQsqaUBKTNV-1" vertex="1">
                    <mxGeometry x="2285.2700000000004" y="1386.77" width="86" height="30" as="geometry"/>
                </mxCell>
                <mxCell id="107" style="edgeStyle=none;html=1;exitX=0.5;exitY=1;exitDx=0;exitDy=0;entryX=0.5;entryY=0;entryDx=0;entryDy=0;" parent="WIyWlLk6GJQsqaUBKTNV-1" source="108" target="66" edge="1">
                    <mxGeometry relative="1" as="geometry"/>
                </mxCell>
                <mxCell id="108" value="Continuar = si" style="rounded=0;whiteSpace=wrap;html=1;" parent="WIyWlLk6GJQsqaUBKTNV-1" vertex="1">
                    <mxGeometry x="2268.2700000000004" y="185.63" width="120" height="34" as="geometry"/>
                </mxCell>
                <mxCell id="63" value="Inicio" style="strokeWidth=2;html=1;shape=mxgraph.flowchart.start_1;whiteSpace=wrap;" parent="WIyWlLk6GJQsqaUBKTNV-1" vertex="1">
                    <mxGeometry x="2283.2700000000004" y="114.63" width="90" height="38" as="geometry"/>
                </mxCell>
                <mxCell id="64" value="&lt;font style=&quot;font-size: 18px;&quot;&gt;&lt;b&gt;&lt;u&gt;Sector Empleados o de RRHH&lt;/u&gt;&lt;/b&gt;&lt;/font&gt;" style="text;html=1;align=center;verticalAlign=middle;resizable=0;points=[];autosize=1;strokeColor=none;fillColor=none;" parent="WIyWlLk6GJQsqaUBKTNV-1" vertex="1">
                    <mxGeometry x="2188.28" y="51.63" width="280" height="40" as="geometry"/>
                </mxCell>
                <mxCell id="171" style="edgeStyle=none;html=1;exitX=0.5;exitY=1;exitDx=0;exitDy=0;entryX=0.5;entryY=0;entryDx=0;entryDy=0;" parent="WIyWlLk6GJQsqaUBKTNV-1" source="167" target="170" edge="1">
                    <mxGeometry relative="1" as="geometry">
                        <Array as="points">
                            <mxPoint x="2804.7200000000003" y="553.5"/>
                        </Array>
                    </mxGeometry>
                </mxCell>
                <mxCell id="180" value="Si" style="edgeLabel;html=1;align=center;verticalAlign=middle;resizable=0;points=[];" parent="171" vertex="1" connectable="0">
                    <mxGeometry x="-0.1358" y="2" relative="1" as="geometry">
                        <mxPoint x="-2" y="-1" as="offset"/>
                    </mxGeometry>
                </mxCell>
                <mxCell id="173" style="edgeStyle=none;html=1;exitX=0.5;exitY=1;exitDx=0;exitDy=0;entryX=0.5;entryY=0;entryDx=0;entryDy=0;" parent="WIyWlLk6GJQsqaUBKTNV-1" source="170" target="172" edge="1">
                    <mxGeometry relative="1" as="geometry"/>
                </mxCell>
                <mxCell id="170" value="Id_empleado&lt;div&gt;Fecha_hoy&lt;/div&gt;" style="shape=parallelogram;perimeter=parallelogramPerimeter;whiteSpace=wrap;html=1;fixedSize=1;strokeWidth=2;" parent="WIyWlLk6GJQsqaUBKTNV-1" vertex="1">
                    <mxGeometry x="2744.6600000000003" y="583.5" width="120" height="50" as="geometry"/>
                </mxCell>
                <mxCell id="188" style="edgeStyle=none;html=1;exitX=0.5;exitY=1;exitDx=0;exitDy=0;entryX=1;entryY=0.5;entryDx=0;entryDy=0;entryPerimeter=0;" parent="WIyWlLk6GJQsqaUBKTNV-1" source="172" target="184" edge="1">
                    <mxGeometry relative="1" as="geometry">
                        <Array as="points">
                            <mxPoint x="2800" y="1170"/>
                        </Array>
                    </mxGeometry>
                </mxCell>
                <mxCell id="172" value="Borrar los datos del empleado de la base de datos" style="rounded=1;whiteSpace=wrap;html=1;" parent="WIyWlLk6GJQsqaUBKTNV-1" vertex="1">
                    <mxGeometry x="2744.6600000000003" y="678.5" width="120" height="60" as="geometry"/>
                </mxCell>
                <mxCell id="192" style="edgeStyle=none;html=1;exitX=0.5;exitY=1;exitDx=0;exitDy=0;exitPerimeter=0;entryX=0.5;entryY=0;entryDx=0;entryDy=0;" parent="WIyWlLk6GJQsqaUBKTNV-1" source="184" target="103" edge="1">
                    <mxGeometry relative="1" as="geometry"/>
                </mxCell>
                <mxCell id="184" value="" style="strokeWidth=2;html=1;shape=mxgraph.flowchart.database;whiteSpace=wrap;" parent="WIyWlLk6GJQsqaUBKTNV-1" vertex="1">
                    <mxGeometry x="2281.29" y="1141.2600000000002" width="60" height="60" as="geometry"/>
                </mxCell>
                <mxCell id="189" style="edgeStyle=none;html=1;exitX=0.5;exitY=1;exitDx=0;exitDy=0;entryX=1;entryY=0.5;entryDx=0;entryDy=0;entryPerimeter=0;" parent="WIyWlLk6GJQsqaUBKTNV-1" target="184" edge="1">
                    <mxGeometry relative="1" as="geometry">
                        <mxPoint x="2333.85" y="1082.63" as="targetPoint"/>
                        <mxPoint x="2565.75" y="827" as="sourcePoint"/>
                        <Array as="points">
                            <mxPoint x="2566" y="1170"/>
                        </Array>
                    </mxGeometry>
                </mxCell>
                <mxCell id="190" style="edgeStyle=none;html=1;exitX=0.5;exitY=1;exitDx=0;exitDy=0;entryX=1;entryY=0.15;entryDx=0;entryDy=0;entryPerimeter=0;" parent="WIyWlLk6GJQsqaUBKTNV-1" source="95" target="184" edge="1">
                    <mxGeometry relative="1" as="geometry">
                        <Array as="points">
                            <mxPoint x="2400" y="1090"/>
                        </Array>
                    </mxGeometry>
                </mxCell>
                <mxCell id="85" style="edgeStyle=none;html=1;exitX=0.5;exitY=1;exitDx=0;exitDy=0;entryX=0;entryY=0.5;entryDx=0;entryDy=0;entryPerimeter=0;" parent="WIyWlLk6GJQsqaUBKTNV-1" source="86" target="184" edge="1">
                    <mxGeometry relative="1" as="geometry">
                        <mxPoint x="1911.3999999999992" y="704" as="targetPoint"/>
                        <Array as="points">
                            <mxPoint x="1911" y="1171"/>
                        </Array>
                    </mxGeometry>
                </mxCell>
                <mxCell id="202" style="edgeStyle=none;html=1;exitX=0.5;exitY=1;exitDx=0;exitDy=0;entryX=0;entryY=0.5;entryDx=0;entryDy=0;entryPerimeter=0;" parent="WIyWlLk6GJQsqaUBKTNV-1" source="200" target="184" edge="1">
                    <mxGeometry relative="1" as="geometry">
                        <Array as="points">
                            <mxPoint x="2153" y="1171"/>
                        </Array>
                    </mxGeometry>
                </mxCell>
            </root>
        </mxGraphModel>
    </diagram>
</mxfile>